<svg xmlns="http://www.w3.org/2000/svg" width="103" height="45" viewBox="0 0 103 45" fill="none">
<path fill-rule="evenodd" clip-rule="evenodd" d="M14.2566 17.2694C13.8363 17.0404 13.3324 17.0404 12.9121 17.2694L1.76831 23.3418L1.74319 23.328L1.72326 23.3663L1.58171 23.4434C1.11435 23.6981 0.822266 24.1962 0.822266 24.7386V37.0057C0.822266 37.5481 1.11435 38.0462 1.58171 38.3009L12.9121 44.4749C13.3324 44.7039 13.8363 44.7039 14.2566 44.4749L25.5869 38.3009C26.0543 38.0462 26.3464 37.5481 26.3464 37.0057V24.7386C26.3464 24.1962 26.0543 23.6981 25.5869 23.4434L14.2566 17.2694ZM24.6283 36.8294L14.8907 42.1356L14.8901 31.3099L24.6283 25.9908V36.8294ZM2.54031 25.7591V36.8294L13.1727 42.6231L13.172 31.5717L8.72105 29.1383L7.00219 28.1985L2.54031 25.7591ZM23.7861 24.4559L13.7915 29.9152L7.65469 26.56L3.59473 24.3403L13.5843 18.8969L19.4673 22.1026L23.7861 24.4559Z" fill="#080808"/>
<path fill-rule="evenodd" clip-rule="evenodd" d="M2.14062 25.0771L7.1898 27.8376L7.00182 28.1986L2.53995 25.7592V36.8296L13.1723 42.6232L13.1717 31.5718L7.00182 28.1986L7.1898 27.8376L13.571 31.3264L13.5717 43.3043L2.14062 37.0754V25.0771ZM25.0273 37.0754L14.491 42.8167L14.4904 31.0645L25.0273 25.3091V37.0754ZM13.7911 30.379L2.74503 24.3398L13.5839 18.4336L24.6354 24.4556L13.7911 30.379ZM24.628 36.8296L14.8903 42.1357L14.8897 31.3101L24.628 25.9909V36.8296ZM23.7857 24.4561L13.5839 18.897L3.59436 24.3404L13.7912 29.9153L23.7857 24.4561Z" fill="#080808"/>
<path fill-rule="evenodd" clip-rule="evenodd" d="M2.14062 25.0771L7.1898 27.8376L7.00182 28.1986L2.53995 25.7592V36.8296L13.1723 42.6232L13.1717 31.5718L7.00182 28.1986L7.1898 27.8376L13.571 31.3264L13.5717 43.3043L2.14062 37.0754V25.0771ZM25.0273 37.0754L14.491 42.8167L14.4904 31.0645L25.0273 25.3091V37.0754ZM13.7911 30.379L2.74503 24.3398L13.5839 18.4336L24.6354 24.4556L13.7911 30.379ZM24.628 36.8296L14.8903 42.1357L14.8897 31.3101L24.628 25.9909V36.8296ZM23.7857 24.4561L13.5839 18.897L3.59436 24.3404L13.7912 29.9153L23.7857 24.4561Z" fill="#080808"/>
<path d="M21.3212 10.9865H15.0047L16.4084 2.36719L5.88086 15.2961H12.1974L10.7937 23.9154L21.3212 10.9865Z" fill="#080808"/>
<path fill-rule="evenodd" clip-rule="evenodd" d="M17.4686 0L15.7906 10.3038H22.7433L9.73372 26.281L11.4117 15.9772H4.45898L17.4686 0ZM7.30296 14.6134H12.9833L11.8539 21.5482L19.8994 11.6676H14.2191L15.3484 4.73274L7.30296 14.6134Z" fill="#080808"/>
<path d="M82.1016 40.3966L85.7434 22.1875H93.4434C95.8019 22.1875 97.6229 22.6991 98.9062 23.7223C100.19 24.7454 100.831 26.1848 100.831 28.0404C100.831 29.5665 100.467 30.9019 99.7386 32.0464C99.0103 33.191 97.9697 34.0754 96.617 34.6998C95.2643 35.3241 93.6688 35.6362 91.8306 35.6362H85.9255L88.6569 33.3471L87.2522 40.3966H82.1016ZM88.5269 33.9454L86.7319 31.5782H92.0647C93.1919 31.5782 94.0677 31.3094 94.692 30.7718C95.3164 30.2342 95.6285 29.4711 95.6285 28.4827C95.6285 27.7196 95.3771 27.156 94.8741 26.7918C94.3712 26.4276 93.6689 26.2455 92.7671 26.2455H87.8245L90.5559 23.8003L88.5269 33.9454Z" fill="#080808"/>
<path d="M73.2852 40.3966L76.927 22.1875H82.0777L78.4358 40.3966H73.2852Z" fill="#080808"/>
<path d="M68.1183 22.1875H73.2689L69.627 40.3966H64.4764L68.1183 22.1875ZM57.4788 40.3966H52.3281L55.97 22.1875H61.1207L57.4788 40.3966ZM66.2713 33.2951H58.5453L59.4038 29.0289H67.1297L66.2713 33.2951Z" fill="#080808"/>
<path d="M42.2756 40.7617C41.2351 40.7617 40.2379 40.675 39.2841 40.5016C38.3302 40.3455 37.4631 40.12 36.6827 39.8252C35.9023 39.5131 35.2346 39.1749 34.6797 38.8107L36.7087 34.9608C37.3331 35.3423 37.9747 35.6718 38.6337 35.9493C39.3101 36.2094 39.9951 36.4089 40.6888 36.5476C41.3825 36.6863 42.0762 36.7557 42.7699 36.7557C43.4289 36.7557 43.9925 36.695 44.4607 36.5736C44.929 36.4349 45.2845 36.2441 45.5273 36.0013C45.7701 35.7585 45.8915 35.4724 45.8915 35.1429C45.8915 34.7787 45.7267 34.4926 45.3972 34.2845C45.085 34.059 44.6688 33.8682 44.1486 33.7122C43.6283 33.5561 43.0473 33.4 42.4057 33.2439C41.7813 33.0705 41.1484 32.8711 40.5067 32.6456C39.8824 32.4028 39.3101 32.108 38.7898 31.7612C38.2695 31.397 37.8447 30.9374 37.5151 30.3825C37.203 29.8276 37.0469 29.1425 37.0469 28.3275C37.0469 27.0095 37.4024 25.8649 38.1135 24.8938C38.8245 23.9226 39.8303 23.1682 41.131 22.6306C42.449 22.093 44.0012 21.8242 45.7874 21.8242C47.0881 21.8242 48.302 21.963 49.4293 22.2404C50.5565 22.5006 51.5277 22.8821 52.3428 23.385L50.4698 27.2089C49.7588 26.758 48.9697 26.4199 48.1026 26.1944C47.2528 25.9516 46.377 25.8302 45.4752 25.8302C44.7816 25.8302 44.1832 25.9083 43.6803 26.0643C43.1947 26.2204 42.8219 26.4372 42.5617 26.7147C42.319 26.9748 42.1976 27.2696 42.1976 27.5991C42.1976 27.9459 42.3536 28.2321 42.6658 28.4575C42.978 28.683 43.3942 28.8737 43.9144 29.0298C44.4521 29.1859 45.033 29.3507 45.6573 29.5241C46.299 29.6802 46.932 29.8709 47.5563 30.0964C48.1806 30.3045 48.7616 30.5906 49.2992 30.9548C49.8368 31.3016 50.2617 31.7438 50.5739 32.2815C50.886 32.8191 51.0421 33.4867 51.0421 34.2845C51.0421 35.5851 50.6866 36.721 49.9756 37.6922C49.2645 38.6633 48.25 39.4177 46.932 39.9553C45.614 40.4929 44.0618 40.7617 42.2756 40.7617Z" fill="#080808"/>
<path d="M86.7402 17.4448L95.5346 3.73438H99.354L102.664 17.4448H98.8056L96.3572 5.57549H97.885L90.8338 17.4448H86.7402ZM90.5792 14.781L92.1461 11.9214H98.8447L99.2756 14.781H90.5792Z" fill="#080808"/>
<path d="M73.8867 17.4448L76.6288 3.73438H82.4852C84.248 3.73438 85.606 4.11957 86.5592 4.88997C87.5255 5.66036 88.0086 6.73107 88.0086 8.10211C88.0086 9.25117 87.7279 10.2566 87.1664 11.1184C86.618 11.9671 85.8345 12.6265 84.816 13.0966C83.7975 13.5667 82.5962 13.8017 81.2121 13.8017H76.7659L78.8225 12.1369L77.7649 17.4448H73.8867ZM82.4852 17.4448L79.6843 12.4503H83.6996L86.5396 17.4448H82.4852ZM78.7246 12.5874L77.3731 10.805H81.3884C82.2502 10.805 82.9161 10.6026 83.3862 10.1978C83.8563 9.79306 84.0913 9.21853 84.0913 8.47425C84.0913 7.89972 83.902 7.47535 83.5233 7.20115C83.1446 6.92694 82.6158 6.78983 81.9368 6.78983H78.1958L80.2719 4.94872L78.7246 12.5874Z" fill="#080808"/>
<path d="M64.3516 17.4448L66.4865 6.80942H62.2754L62.9022 3.73438H75.1829L74.5562 6.80942H70.3646L68.2297 17.4448H64.3516Z" fill="#080808"/>
<path d="M50.7812 17.4448L53.5234 3.73438H57.4015L55.2862 14.3697H61.8281L61.2013 17.4448H50.7812Z" fill="#080808"/>
<path d="M42.0615 17.719C40.6904 17.719 39.5414 17.4578 38.6143 16.9355C37.7002 16.4002 37.0539 15.6559 36.6752 14.7027C36.2965 13.7364 36.2312 12.6135 36.4793 11.3338L38.0071 3.73438H41.8852L40.3771 11.2751C40.2726 11.8235 40.24 12.3001 40.2791 12.7049C40.3183 13.1097 40.4293 13.4492 40.6121 13.7234C40.808 13.9976 41.0626 14.2 41.376 14.3305C41.7024 14.4481 42.0876 14.5068 42.5316 14.5068C43.0669 14.5068 43.5305 14.4024 43.9222 14.1934C44.327 13.9715 44.66 13.6254 44.9211 13.1554C45.1954 12.6722 45.4043 12.0455 45.5479 11.2751L47.0561 3.73438H50.8755L49.3281 11.5101C48.9233 13.5471 48.1138 15.0944 46.8994 16.1521C45.685 17.1967 44.0724 17.719 42.0615 17.719Z" fill="#080808"/>
</svg>